BioRhyme-Bold.ufo
<glyph name="asterisk" format="1">
  <advance width="390"/>
  <unicode hex="002A"/>
  <outline>
    <contour>
      <point x="148" y="559"/>
      <point x="167" y="527"/>
      <point x="172" y="504" type="curve" smooth="yes"/>
      <point x="176" y="485" type="line"/>
      <point x="213" y="485" type="line"/>
      <point x="218" y="504" type="line" smooth="yes"/>
      <point x="222" y="526"/>
      <point x="244" y="559"/>
      <point x="244" y="580" type="curve" smooth="yes"/>
      <point x="244" y="600"/>
      <point x="230" y="623"/>
      <point x="196" y="624" type="curve" smooth="yes"/>
      <point x="160" y="623"/>
      <point x="148" y="600"/>
      <point x="148" y="580" type="curve" smooth="yes"/>
    </contour>
    <contour>
      <point x="241" y="441" type="line"/>
      <point x="260" y="442" type="line" smooth="yes"/>
      <point x="283" y="442"/>
      <point x="320" y="432"/>
      <point x="341" y="437" type="curve" smooth="yes"/>
      <point x="359" y="441"/>
      <point x="378" y="460"/>
      <point x="370" y="494" type="curve" smooth="yes"/>
      <point x="360" y="528"/>
      <point x="334" y="533"/>
      <point x="315" y="529" type="curve" smooth="yes"/>
      <point x="295" y="524"/>
      <point x="269" y="497"/>
      <point x="248" y="487" type="curve" smooth="yes"/>
      <point x="230" y="477" type="line"/>
    </contour>
    <contour>
      <point x="212" y="385" type="line" smooth="yes"/>
      <point x="220" y="365"/>
      <point x="223" y="326"/>
      <point x="236" y="308" type="curve" smooth="yes"/>
      <point x="246" y="293"/>
      <point x="272" y="284"/>
      <point x="301" y="304" type="curve" smooth="yes"/>
      <point x="329" y="325"/>
      <point x="323" y="351"/>
      <point x="312" y="367" type="curve" smooth="yes"/>
      <point x="300" y="384"/>
      <point x="266" y="398"/>
      <point x="249" y="414" type="curve" smooth="yes"/>
      <point x="232" y="427" type="line"/>
      <point x="202" y="403" type="line"/>
    </contour>
    <contour>
      <point x="142" y="414" type="line" smooth="yes"/>
      <point x="124" y="398"/>
      <point x="90" y="384"/>
      <point x="77" y="367" type="curve" smooth="yes"/>
      <point x="66" y="351"/>
      <point x="61" y="325"/>
      <point x="89" y="304" type="curve" smooth="yes"/>
      <point x="118" y="284"/>
      <point x="143" y="293"/>
      <point x="153" y="308" type="curve" smooth="yes"/>
      <point x="166" y="326"/>
      <point x="169" y="365"/>
      <point x="178" y="385" type="curve" smooth="yes"/>
      <point x="187" y="403" type="line"/>
      <point x="158" y="427" type="line"/>
    </contour>
    <contour>
      <point x="13" y="460"/>
      <point x="32" y="441"/>
      <point x="50" y="437" type="curve" smooth="yes"/>
      <point x="71" y="432"/>
      <point x="108" y="442"/>
      <point x="131" y="442" type="curve" smooth="yes"/>
      <point x="150" y="441" type="line"/>
      <point x="161" y="477" type="line"/>
      <point x="142" y="487" type="line" smooth="yes"/>
      <point x="121" y="497"/>
      <point x="95" y="524"/>
      <point x="75" y="529" type="curve" smooth="yes"/>
      <point x="56" y="533"/>
      <point x="31" y="528"/>
      <point x="21" y="494" type="curve" smooth="yes"/>
    </contour>
  </outline>
</glyph>
<glyph name="plus" format="1">
  <advance width="443"/>
  <unicode hex="002B"/>
  <outline>
    <contour>
      <point x="270" y="37" type="line"/>
      <point x="270" y="433" type="line"/>
      <point x="172" y="433" type="line"/>
      <point x="172" y="37" type="line"/>
    </contour>
    <contour>
      <point x="408" y="187" type="line"/>
      <point x="408" y="284" type="line"/>
      <point x="36" y="284" type="line"/>
      <point x="36" y="187" type="line"/>
    </contour>
  </outline>
</glyph>
<glyph name="two" format="1">
  <advance width="476"/>
  <unicode hex="0032"/>
  <outline>
    <contour>
      <point x="445" y="0" type="line"/>
      <point x="445" y="163" type="line"/>
      <point x="349" y="163" type="line"/>
      <point x="349" y="96" type="line"/>
      <point x="22" y="96" type="line"/>
      <point x="22" y="0" type="line"/>
    </contour>
    <contour>
      <point x="435" y="429"/>
      <point x="335" y="481"/>
      <point x="249" y="480" type="curve" smooth="yes"/>
      <point x="154" y="479"/>
      <point x="85" y="433"/>
      <point x="39" y="382" type="curve"/>
      <point x="98" y="312" type="line"/>
      <point x="150" y="358"/>
      <point x="192" y="383"/>
      <point x="242" y="383" type="curve" smooth="yes"/>
      <point x="284" y="383"/>
      <point x="316" y="360"/>
      <point x="316" y="332" type="curve" smooth="yes"/>
      <point x="315" y="308"/>
      <point x="298" y="296"/>
      <point x="206" y="265" type="curve" smooth="yes"/>
      <point x="85" y="223"/>
      <point x="22" y="166"/>
      <point x="22" y="84" type="curve"/>
      <point x="139" y="84" type="line"/>
      <point x="139" y="127"/>
      <point x="171" y="147"/>
      <point x="256" y="175" type="curve" smooth="yes"/>
      <point x="364" y="212"/>
      <point x="435" y="251"/>
      <point x="435" y="333" type="curve" smooth="yes"/>
    </contour>
  </outline>
</glyph>
<glyph name="eight" format="1">
  <advance width="510"/>
  <unicode hex="0038"/>
  <outline>
    <contour>
      <point x="403" y="-10"/>
      <point x="479" y="64"/>
      <point x="479" y="138" type="curve" smooth="yes"/>
      <point x="479" y="205"/>
      <point x="412" y="255"/>
      <point x="263" y="285" type="curve" smooth="yes"/>
      <point x="217" y="295"/>
      <point x="167" y="299"/>
      <point x="167" y="335" type="curve" smooth="yes"/>
      <point x="167" y="371"/>
      <point x="216" y="385"/>
      <point x="256" y="385" type="curve" smooth="yes"/>
      <point x="315" y="385"/>
      <point x="358" y="363"/>
      <point x="358" y="322" type="curve" smooth="yes"/>
      <point x="358" y="280"/>
      <point x="307" y="247"/>
      <point x="266" y="220" type="curve"/>
      <point x="371" y="213" type="line"/>
      <point x="411" y="228"/>
      <point x="472" y="267"/>
      <point x="472" y="334" type="curve" smooth="yes"/>
      <point x="472" y="410"/>
      <point x="389" y="481"/>
      <point x="258" y="481" type="curve" smooth="yes"/>
      <point x="129" y="481"/>
      <point x="53" y="407"/>
      <point x="53" y="336" type="curve" smooth="yes"/>
      <point x="53" y="268"/>
      <point x="113" y="216"/>
      <point x="261" y="188" type="curve" smooth="yes"/>
      <point x="315" y="178"/>
      <point x="365" y="173"/>
      <point x="365" y="137" type="curve" smooth="yes"/>
      <point x="365" y="100"/>
      <point x="316" y="86"/>
      <point x="269" y="86" type="curve" smooth="yes"/>
      <point x="208" y="86"/>
      <point x="146" y="108"/>
      <point x="146" y="149" type="curve" smooth="yes"/>
      <point x="146" y="191"/>
      <point x="199" y="224"/>
      <point x="237" y="251" type="curve"/>
      <point x="131" y="258" type="line"/>
      <point x="94" y="243"/>
      <point x="32" y="204"/>
      <point x="32" y="137" type="curve" smooth="yes"/>
      <point x="32" y="60"/>
      <point x="109" y="-10"/>
      <point x="267" y="-10" type="curve" smooth="yes"/>
    </contour>
  </outline>
</glyph>
<glyph name="colon" format="1">
  <advance width="233"/>
  <unicode hex="003A"/>
  <outline>
    <contour>
      <point x="164" y="234"/>
      <point x="197" y="261"/>
      <point x="197" y="298" type="curve"/>
      <point x="197" y="337"/>
      <point x="164" y="365"/>
      <point x="117" y="365" type="curve"/>
      <point x="73" y="365"/>
      <point x="37" y="337"/>
      <point x="37" y="298" type="curve"/>
      <point x="37" y="261"/>
      <point x="73" y="234"/>
      <point x="117" y="234" type="curve"/>
    </contour>
    <contour>
      <point x="164" y="-10"/>
      <point x="197" y="17"/>
      <point x="197" y="54" type="curve"/>
      <point x="197" y="94"/>
      <point x="164" y="121"/>
      <point x="117" y="121" type="curve"/>
      <point x="73" y="121"/>
      <point x="37" y="94"/>
      <point x="37" y="54" type="curve"/>
      <point x="37" y="17"/>
      <point x="73" y="-10"/>
      <point x="117" y="-10" type="curve"/>
    </contour>
  </outline>
</glyph>
<glyph name="greater" format="1">
  <advance width="403"/>
  <unicode hex="003E"/>
  <outline>
    <contour>
      <point x="391" y="249" type="line"/>
      <point x="313" y="278" type="line"/>
      <point x="38" y="121" type="line"/>
      <point x="38" y="10" type="line"/>
      <point x="391" y="222" type="line"/>
    </contour>
    <contour>
      <point x="391" y="249" type="line"/>
      <point x="38" y="460" type="line"/>
      <point x="38" y="349" type="line"/>
      <point x="313" y="193" type="line"/>
      <point x="391" y="222" type="line"/>
    </contour>
  </outline>
</glyph>
<glyph name="at" format="1">
  <advance width="717"/>
  <unicode hex="0040"/>
  <outline>
    <contour>
      <point x="415" y="-138"/>
      <point x="478" y="-114"/>
      <point x="508" y="-90" type="curve"/>
      <point x="485" y="-40" type="line"/>
      <point x="456" y="-62"/>
      <point x="397" y="-86"/>
      <point x="331" y="-86" type="curve" smooth="yes"/>
      <point x="204" y="-86"/>
      <point x="92" y="22"/>
      <point x="92" y="171" type="curve" smooth="yes"/>
      <point x="92" y="332"/>
      <point x="219" y="453"/>
      <point x="371" y="453" type="curve" smooth="yes"/>
      <point x="527" y="453"/>
      <point x="626" y="332"/>
      <point x="626" y="217" type="curve" smooth="yes"/>
      <point x="626" y="124"/>
      <point x="592" y="87"/>
      <point x="560" y="87" type="curve" smooth="yes"/>
      <point x="534" y="87"/>
      <point x="519" y="108"/>
      <point x="519" y="147" type="curve" smooth="yes"/>
      <point x="519" y="212" type="line" smooth="yes"/>
      <point x="519" y="284"/>
      <point x="472" y="334"/>
      <point x="373" y="334" type="curve" smooth="yes"/>
      <point x="316" y="334"/>
      <point x="267" y="322"/>
      <point x="211" y="298" type="curve"/>
      <point x="231" y="226" type="line"/>
      <point x="277" y="246"/>
      <point x="319" y="255"/>
      <point x="354" y="255" type="curve" smooth="yes"/>
      <point x="392" y="255"/>
      <point x="424" y="243"/>
      <point x="424" y="216" type="curve" smooth="yes"/>
      <point x="424" y="137" type="line" smooth="yes"/>
      <point x="424" y="84"/>
      <point x="464" y="24"/>
      <point x="542" y="24" type="curve" smooth="yes"/>
      <point x="618" y="24"/>
      <point x="690" y="89"/>
      <point x="690" y="217" type="curve" smooth="yes"/>
      <point x="690" y="353"/>
      <point x="572" y="505"/>
      <point x="371" y="505" type="curve" smooth="yes"/>
      <point x="192" y="505"/>
      <point x="28" y="382"/>
      <point x="28" y="173" type="curve" smooth="yes"/>
      <point x="28" y="-34"/>
      <point x="183" y="-138"/>
      <point x="333" y="-138" type="curve" smooth="yes"/>
    </contour>
    <contour>
      <point x="350" y="20"/>
      <point x="404" y="43"/>
      <point x="441" y="80" type="curve"/>
      <point x="443" y="140" type="line"/>
      <point x="402" y="108"/>
      <point x="354" y="97"/>
      <point x="331" y="97" type="curve" smooth="yes"/>
      <point x="310" y="97"/>
      <point x="300" y="101"/>
      <point x="300" y="118" type="curve" smooth="yes"/>
      <point x="300" y="143"/>
      <point x="331" y="145"/>
      <point x="357" y="145" type="curve" smooth="yes"/>
      <point x="380" y="145"/>
      <point x="404" y="143"/>
      <point x="443" y="133" type="curve"/>
      <point x="443" y="192" type="line"/>
      <point x="407" y="204"/>
      <point x="372" y="212"/>
      <point x="329" y="212" type="curve" smooth="yes"/>
      <point x="265" y="212"/>
      <point x="193" y="182"/>
      <point x="193" y="113" type="curve" smooth="yes"/>
      <point x="193" y="47"/>
      <point x="249" y="20"/>
      <point x="301" y="20" type="curve" smooth="yes"/>
    </contour>
  </outline>
</glyph>
<glyph name="A" format="1">
  <advance width="696"/>
  <unicode hex="0041"/>
  <outline>
    <contour>
      <point x="158" y="13" type="line"/>
      <point x="373" y="463" type="line"/>
      <point x="322" y="463" type="line"/>
      <point x="536" y="13" type="line"/>
      <point x="674" y="13" type="line"/>
      <point x="434" y="461" type="line" smooth="yes"/>
      <point x="261" y="461" type="line"/>
      <point x="23" y="13" type="line"/>
    </contour>
    <contour>
      <point x="266" y="0" type="line"/>
      <point x="266" y="96" type="line"/>
      <point x="0" y="96" type="line"/>
      <point x="0" y="0" type="line"/>
    </contour>
    <contour>
      <point x="497" y="172" type="line"/>
      <point x="480" y="259" type="line"/>
      <point x="214" y="259" type="line"/>
      <point x="196" y="172" type="line"/>
    </contour>
    <contour>
      <point x="697" y="0" type="line"/>
      <point x="697" y="96" type="line"/>
      <point x="432" y="96" type="line"/>
      <point x="432" y="0" type="line"/>
    </contour>
    <contour>
      <point x="507" y="424" type="line"/>
      <point x="507" y="520" type="line"/>
      <point x="187" y="520" type="line"/>
      <point x="187" y="424" type="line"/>
    </contour>
    <contour>
      <point x="419" y="638" type="move" name="hook"/>
    </contour>
    <contour>
      <point x="667" y="9" type="move" name="ogonek"/>
    </contour>
    <contour>
      <point x="348" y="502" type="move" name="top"/>
    </contour>
    <contour>
      <point x="350" y="0" type="move" name="bottom"/>
    </contour>
  </outline>
</glyph>
<glyph name="D" format="1">
  <advance width="649"/>
  <unicode hex="0044"/>
  <outline>
    <contour>
      <point x="330" y="0" type="line"/>
      <point x="474" y="0"/>
      <point x="624" y="73"/>
      <point x="624" y="260" type="curve"/>
      <point x="624" y="447"/>
      <point x="474" y="520"/>
      <point x="330" y="520" type="curve"/>
      <point x="25" y="520" type="line"/>
      <point x="25" y="424" type="line"/>
      <point x="301" y="424" type="line"/>
      <point x="379" y="424"/>
      <point x="496" y="404"/>
      <point x="496" y="260" type="curve"/>
      <point x="496" y="116"/>
      <point x="379" y="98"/>
      <point x="301" y="98" type="curve"/>
      <point x="25" y="98" type="line"/>
      <point x="25" y="0" type="line"/>
    </contour>
    <contour>
      <point x="233" y="56" type="line"/>
      <point x="233" y="464" type="line"/>
      <point x="110" y="464" type="line"/>
      <point x="110" y="56" type="line"/>
    </contour>
    <contour>
      <point x="300" y="263" type="move" name="center"/>
    </contour>
    <contour>
      <point x="300" y="0" type="move" name="bottom"/>
    </contour>
    <contour>
      <point x="300" y="527" type="move" name="top"/>
    </contour>
  </outline>
</glyph>
<glyph name="K" format="1">
  <advance width="646"/>
  <unicode hex="004B"/>
  <outline>
    <contour>
      <point x="602" y="442" type="line"/>
      <point x="466" y="442" type="line"/>
      <point x="161" y="197" type="line"/>
      <point x="162" y="86" type="line"/>
    </contour>
    <contour>
      <point x="310" y="0" type="line" smooth="yes"/>
      <point x="310" y="96" type="line" smooth="yes"/>
      <point x="25" y="96" type="line" smooth="yes"/>
      <point x="25" y="0" type="line" smooth="yes"/>
    </contour>
    <contour>
      <point x="232" y="53" type="line" smooth="yes"/>
      <point x="232" y="464" type="line" smooth="yes"/>
      <point x="110" y="464" type="line" smooth="yes"/>
      <point x="110" y="53" type="line" smooth="yes"/>
    </contour>
    <contour>
      <point x="649" y="0" type="line" smooth="yes"/>
      <point x="649" y="96" type="line" smooth="yes"/>
      <point x="382" y="96" type="line" smooth="yes"/>
      <point x="382" y="0" type="line" smooth="yes"/>
    </contour>
    <contour>
      <point x="621" y="72" type="line"/>
      <point x="375" y="333" type="line"/>
      <point x="280" y="276" type="line"/>
      <point x="466" y="72" type="line"/>
    </contour>
    <contour>
      <point x="310" y="424" type="line" smooth="yes"/>
      <point x="310" y="520" type="line" smooth="yes"/>
      <point x="25" y="520" type="line" smooth="yes"/>
      <point x="25" y="424" type="line" smooth="yes"/>
    </contour>
    <contour>
      <point x="637" y="424" type="line" smooth="yes"/>
      <point x="637" y="520" type="line" smooth="yes"/>
      <point x="370" y="520" type="line" smooth="yes"/>
      <point x="370" y="424" type="line" smooth="yes"/>
    </contour>
    <contour>
      <point x="359" y="520" type="move" name="top"/>
    </contour>
    <contour>
      <point x="359" y="0" type="move" name="bottom"/>
    </contour>
  </outline>
</glyph>
<glyph name="L" format="1">
  <advance width="543"/>
  <unicode hex="004C"/>
  <outline>
    <contour>
      <point x="544" y="0" type="line"/>
      <point x="544" y="218" type="line"/>
      <point x="428" y="218" type="line"/>
      <point x="428" y="96" type="line"/>
      <point x="25" y="96" type="line"/>
      <point x="25" y="0" type="line"/>
    </contour>
    <contour>
      <point x="232" y="53" type="line"/>
      <point x="232" y="458" type="line"/>
      <point x="110" y="458" type="line"/>
      <point x="110" y="53" type="line"/>
    </contour>
    <contour>
      <point x="316" y="424" type="line"/>
      <point x="316" y="520" type="line"/>
      <point x="25" y="520" type="line"/>
      <point x="25" y="424" type="line"/>
    </contour>
    <contour>
      <point x="279" y="0" type="move" name="bottom"/>
    </contour>
    <contour>
      <point x="279" y="527" type="move" name="top"/>
    </contour>
    <contour>
      <point x="479" y="490" type="move" name="topright"/>
    </contour>
    <contour>
      <point x="279" y="245" type="move" name="center"/>
    </contour>
  </outline>
</glyph>
<glyph name="M" format="1">
  <advance width="845"/>
  <unicode hex="004D"/>
  <outline>
    <contour>
      <point x="435" y="-1" type="line"/>
      <point x="462" y="86" type="line"/>
      <point x="244" y="520" type="line"/>
      <point x="118" y="520" type="line"/>
      <point x="386" y="-1" type="line"/>
    </contour>
    <contour>
      <point x="303" y="0" type="line"/>
      <point x="303" y="96" type="line"/>
      <point x="25" y="96" type="line"/>
      <point x="25" y="0" type="line"/>
    </contour>
    <contour>
      <point x="225" y="54" type="line"/>
      <point x="225" y="520" type="line"/>
      <point x="110" y="520" type="line"/>
      <point x="110" y="54" type="line"/>
    </contour>
    <contour>
      <point x="222" y="424" type="line"/>
      <point x="222" y="520" type="line"/>
      <point x="25" y="520" type="line"/>
      <point x="25" y="424" type="line"/>
    </contour>
    <contour>
      <point x="820" y="0" type="line"/>
      <point x="820" y="96" type="line"/>
      <point x="536" y="96" type="line"/>
      <point x="536" y="0" type="line"/>
    </contour>
    <contour>
      <point x="453" y="-1" type="line"/>
      <point x="721" y="520" type="line"/>
      <point x="600" y="520" type="line"/>
      <point x="387" y="86" type="line"/>
      <point x="408" y="-1" type="line"/>
    </contour>
    <contour>
      <point x="735" y="54" type="line"/>
      <point x="735" y="520" type="line"/>
      <point x="613" y="520" type="line"/>
      <point x="613" y="54" type="line"/>
    </contour>
    <contour>
      <point x="820" y="424" type="line"/>
      <point x="820" y="520" type="line"/>
      <point x="617" y="520" type="line"/>
      <point x="617" y="424" type="line"/>
    </contour>
    <contour>
      <point x="420" y="492" type="move" name="top"/>
    </contour>
    <contour>
      <point x="423" y="3" type="move" name="bottom"/>
    </contour>
  </outline>
</glyph>
<glyph name="N" format="1">
  <advance width="718"/>
  <unicode hex="004E"/>
  <outline>
    <contour>
      <point x="629" y="-4" type="line"/>
      <point x="629" y="507" type="line"/>
      <point x="517" y="507" type="line"/>
      <point x="517" y="201" type="line"/>
      <point x="228" y="520" type="line"/>
      <point x="77" y="520" type="line"/>
      <point x="563" y="-5" type="line"/>
    </contour>
    <contour>
      <point x="318" y="0" type="line"/>
      <point x="318" y="96" type="line"/>
      <point x="25" y="96" type="line"/>
      <point x="25" y="0" type="line"/>
    </contour>
    <contour>
      <point x="228" y="12" type="line"/>
      <point x="228" y="520" type="line"/>
      <point x="110" y="520" type="line"/>
      <point x="110" y="12" type="line"/>
    </contour>
    <contour>
      <point x="224" y="424" type="line"/>
      <point x="228" y="520" type="line"/>
      <point x="25" y="520" type="line"/>
      <point x="25" y="424" type="line"/>
    </contour>
    <contour>
      <point x="714" y="424" type="line"/>
      <point x="714" y="520" type="line"/>
      <point x="432" y="520" type="line"/>
      <point x="432" y="424" type="line"/>
    </contour>
    <contour>
      <point x="370" y="490" type="move" name="top"/>
    </contour>
    <contour>
      <point x="370" y="24" type="move" name="bottom"/>
    </contour>
  </outline>
</glyph>
<glyph name="P" format="1">
  <advance width="588"/>
  <unicode hex="0050"/>
  <outline>
    <contour>
      <point x="362" y="186" type="line" smooth="yes"/>
      <point x="488" y="186"/>
      <point x="569" y="257"/>
      <point x="569" y="357" type="curve" smooth="yes"/>
      <point x="569" y="453"/>
      <point x="485" y="520"/>
      <point x="360" y="520" type="curve" smooth="yes"/>
      <point x="25" y="520" type="line"/>
      <point x="25" y="424" type="line"/>
      <point x="352" y="424" type="line" smooth="yes"/>
      <point x="397" y="424"/>
      <point x="448" y="410"/>
      <point x="448" y="358" type="curve" smooth="yes"/>
      <point x="448" y="293"/>
      <point x="396" y="282"/>
      <point x="355" y="282" type="curve" smooth="yes"/>
      <point x="190" y="283" type="line"/>
      <point x="190" y="186" type="line"/>
    </contour>
    <contour>
      <point x="323" y="0" type="line"/>
      <point x="323" y="96" type="line"/>
      <point x="25" y="96" type="line"/>
      <point x="25" y="0" type="line"/>
    </contour>
    <contour>
      <point x="233" y="53" type="line"/>
      <point x="233" y="468" type="line"/>
      <point x="110" y="468" type="line"/>
      <point x="110" y="53" type="line"/>
    </contour>
    <contour>
      <point x="286" y="527" type="move" name="top"/>
    </contour>
    <contour>
      <point x="286" y="0" type="move" name="bottom"/>
    </contour>
  </outline>
</glyph>
<glyph name="S" format="1">
  <advance width="594"/>
  <unicode hex="0053"/>
  <outline>
    <contour>
      <point x="478" y="-10"/>
      <point x="555" y="45"/>
      <point x="555" y="138" type="curve" smooth="yes"/>
      <point x="555" y="239"/>
      <point x="464" y="285"/>
      <point x="344" y="315" type="curve" smooth="yes"/>
      <point x="233" y="343"/>
      <point x="195" y="355"/>
      <point x="195" y="383" type="curve" smooth="yes"/>
      <point x="195" y="417"/>
      <point x="221" y="434"/>
      <point x="270" y="434" type="curve" smooth="yes"/>
      <point x="348" y="434"/>
      <point x="423" y="385"/>
      <point x="456" y="332" type="curve"/>
      <point x="528" y="336" type="line"/>
      <point x="528" y="520" type="line"/>
      <point x="419" y="520" type="line"/>
      <point x="419" y="405" type="line"/>
      <point x="478" y="400" type="line"/>
      <point x="424" y="474"/>
      <point x="350" y="530"/>
      <point x="245" y="530" type="curve" smooth="yes"/>
      <point x="139" y="530"/>
      <point x="67" y="470"/>
      <point x="67" y="376" type="curve" smooth="yes"/>
      <point x="67" y="296"/>
      <point x="117" y="237"/>
      <point x="243" y="206" type="curve" smooth="yes"/>
      <point x="380" y="173"/>
      <point x="427" y="158"/>
      <point x="427" y="126" type="curve" smooth="yes"/>
      <point x="427" y="91"/>
      <point x="395" y="84"/>
      <point x="357" y="84" type="curve" smooth="yes"/>
      <point x="282" y="84"/>
      <point x="197" y="128"/>
      <point x="142" y="194" type="curve"/>
      <point x="66" y="190" type="line"/>
      <point x="66" y="1" type="line"/>
      <point x="176" y="1" type="line"/>
      <point x="176" y="114" type="line"/>
      <point x="109" y="121" type="line"/>
      <point x="180" y="50"/>
      <point x="258" y="-10"/>
      <point x="370" y="-10" type="curve" smooth="yes"/>
    </contour>
    <contour>
      <point x="298" y="530" type="move" name="top"/>
    </contour>
    <contour>
      <point x="318" y="-10" type="move" name="bottom"/>
    </contour>
  </outline>
</glyph>
<glyph name="Z" format="1">
  <advance width="610"/>
  <unicode hex="005A"/>
  <outline>
    <contour>
      <point x="561" y="0" type="line"/>
      <point x="561" y="200" type="line"/>
      <point x="453" y="200" type="line"/>
      <point x="453" y="96" type="line"/>
      <point x="128" y="96" type="line"/>
      <point x="90" y="31" type="line"/>
      <point x="96" y="21" type="line"/>
      <point x="153" y="32" type="line"/>
      <point x="557" y="434" type="line"/>
      <point x="557" y="520" type="line"/>
      <point x="52" y="520" type="line"/>
      <point x="52" y="320" type="line"/>
      <point x="160" y="320" type="line"/>
      <point x="160" y="424" type="line"/>
      <point x="484" y="424" type="line"/>
      <point x="521" y="493" type="line"/>
      <point x="516" y="499" type="line"/>
      <point x="459" y="488" type="line"/>
      <point x="55" y="86" type="line"/>
      <point x="55" y="0" type="line"/>
    </contour>
    <contour>
      <point x="321" y="520" type="move" name="top"/>
    </contour>
    <contour>
      <point x="321" y="0" type="move" name="bottom"/>
    </contour>
  </outline>
</glyph>
<glyph name="bracketright" format="1">
  <advance width="276"/>
  <unicode hex="005D"/>
  <outline>
    <contour>
      <point x="195" y="-76" type="line"/>
      <point x="195" y="604" type="line"/>
      <point x="91" y="604" type="line"/>
      <point x="91" y="-76" type="line"/>
    </contour>
    <contour>
      <point x="193" y="-76" type="line"/>
      <point x="193" y="20" type="line"/>
      <point x="9" y="20" type="line"/>
      <point x="9" y="-76" type="line"/>
    </contour>
    <contour>
      <point x="193" y="508" type="line"/>
      <point x="193" y="604" type="line"/>
      <point x="9" y="604" type="line"/>
      <point x="9" y="508" type="line"/>
    </contour>
  </outline>
</glyph>
<glyph name="asciicircum" format="1">
  <advance width="415"/>
  <unicode hex="005E"/>
  <outline>
    <contour>
      <point x="186" y="616" type="line"/>
      <point x="167" y="596" type="line"/>
      <point x="286" y="325" type="line"/>
      <point x="398" y="325" type="line"/>
      <point x="250" y="616" type="line"/>
    </contour>
    <contour>
      <point x="174" y="616" type="line"/>
      <point x="16" y="325" type="line"/>
      <point x="129" y="325" type="line"/>
      <point x="257" y="596" type="line"/>
      <point x="239" y="616" type="line"/>
    </contour>
  </outline>
</glyph>
<glyph name="b" format="1">
  <advance width="497"/>
  <unicode hex="0062"/>
  <outline>
    <contour>
      <point x="158" y="430" type="line"/>
      <point x="158" y="520" type="line"/>
      <point x="-20" y="520" type="line"/>
      <point x="-20" y="430" type="line"/>
    </contour>
    <contour>
      <point x="226" y="367"/>
      <point x="141" y="292"/>
      <point x="106" y="173" type="curve"/>
      <point x="106" y="89" type="line"/>
      <point x="139" y="197"/>
      <point x="210" y="268"/>
      <point x="263" y="269" type="curve" smooth="yes"/>
      <point x="316" y="270"/>
      <point x="349" y="231"/>
      <point x="349" y="179" type="curve" smooth="yes"/>
      <point x="349" y="124"/>
      <point x="311" y="84"/>
      <point x="248" y="84" type="curve" smooth="yes"/>
      <point x="195" y="84"/>
      <point x="140" y="130"/>
      <point x="108" y="173" type="curve"/>
      <point x="108" y="97" type="line"/>
      <point x="139" y="55"/>
      <point x="187" y="-11"/>
      <point x="278" y="-11" type="curve" smooth="yes"/>
      <point x="397" y="-11"/>
      <point x="477" y="71"/>
      <point x="477" y="178" type="curve" smooth="yes"/>
      <point x="477" y="287"/>
      <point x="400" y="367"/>
      <point x="304" y="367" type="curve" smooth="yes"/>
    </contour>
    <contour>
      <point x="168" y="-13" type="line"/>
      <point x="168" y="520" type="line"/>
      <point x="52" y="520" type="line"/>
      <point x="52" y="-13" type="line"/>
    </contour>
    <contour>
      <point x="296" y="365" type="move" name="top"/>
    </contour>
    <contour>
      <point x="296" y="-12" type="move" name="bottom"/>
    </contour>
  </outline>
</glyph>
<glyph name="c" format="1">
  <advance width="415"/>
  <unicode hex="0063"/>
  <outline>
    <contour>
      <point x="290" y="-10"/>
      <point x="351" y="14"/>
      <point x="396" y="60" type="curve"/>
      <point x="342" y="138" type="line"/>
      <point x="306" y="108"/>
      <point x="277" y="90"/>
      <point x="233" y="90" type="curve" smooth="yes"/>
      <point x="187" y="90"/>
      <point x="149" y="125"/>
      <point x="149" y="179" type="curve" smooth="yes"/>
      <point x="149" y="238"/>
      <point x="192" y="271"/>
      <point x="237" y="271" type="curve" smooth="yes"/>
      <point x="279" y="271"/>
      <point x="302" y="250"/>
      <point x="326" y="224" type="curve"/>
      <point x="382" y="227" type="line"/>
      <point x="382" y="357" type="line"/>
      <point x="303" y="357" type="line"/>
      <point x="303" y="288" type="line"/>
      <point x="344" y="284" type="line"/>
      <point x="312" y="329"/>
      <point x="280" y="367"/>
      <point x="207" y="367" type="curve" smooth="yes"/>
      <point x="117" y="367"/>
      <point x="21" y="292"/>
      <point x="21" y="179" type="curve" smooth="yes"/>
      <point x="21" y="69"/>
      <point x="112" y="-14"/>
      <point x="233" y="-11" type="curve" smooth="yes"/>
    </contour>
    <contour>
      <point x="217" y="367" type="move" name="top"/>
    </contour>
    <contour>
      <point x="218" y="-10" type="move" name="bottom"/>
    </contour>
  </outline>
</glyph>
<glyph name="g" format="1">
  <advance width="421"/>
  <unicode hex="0067"/>
  <outline>
    <contour>
      <point x="314" y="-162"/>
      <point x="423" y="-110"/>
      <point x="423" y="-26" type="curve" smooth="yes"/>
      <point x="423" y="43"/>
      <point x="372" y="78"/>
      <point x="301" y="78" type="curve" smooth="yes"/>
      <point x="237" y="78"/>
      <point x="206" y="76"/>
      <point x="156" y="76" type="curve" smooth="yes"/>
      <point x="137" y="76"/>
      <point x="116" y="80"/>
      <point x="116" y="103" type="curve" smooth="yes"/>
      <point x="116" y="121"/>
      <point x="145" y="141"/>
      <point x="164" y="151" type="curve"/>
      <point x="114" y="182" type="line"/>
      <point x="67" y="167"/>
      <point x="17" y="131"/>
      <point x="17" y="76" type="curve" smooth="yes"/>
      <point x="17" y="18"/>
      <point x="76" y="-14"/>
      <point x="132" y="-14" type="curve" smooth="yes"/>
      <point x="198" y="-14"/>
      <point x="240" y="-10"/>
      <point x="276" y="-10" type="curve" smooth="yes"/>
      <point x="305" y="-10"/>
      <point x="319" y="-15"/>
      <point x="319" y="-33" type="curve" smooth="yes"/>
      <point x="319" y="-55"/>
      <point x="258" y="-70"/>
      <point x="194" y="-70" type="curve" smooth="yes"/>
      <point x="130" y="-70"/>
      <point x="102" y="-58"/>
      <point x="102" y="-34" type="curve" smooth="yes"/>
      <point x="102" y="-12"/>
      <point x="117" y="9"/>
      <point x="127" y="15" type="curve"/>
      <point x="71" y="39" type="line"/>
      <point x="38" y="20"/>
      <point x="4" y="-13"/>
      <point x="4" y="-59" type="curve" smooth="yes"/>
      <point x="4" y="-128"/>
      <point x="80" y="-162"/>
      <point x="178" y="-162" type="curve" smooth="yes"/>
    </contour>
    <contour>
      <point x="289" y="108"/>
      <point x="387" y="151"/>
      <point x="387" y="238" type="curve" smooth="yes"/>
      <point x="387" y="324"/>
      <point x="298" y="367"/>
      <point x="214" y="367" type="curve" smooth="yes"/>
      <point x="137" y="367"/>
      <point x="42" y="323"/>
      <point x="42" y="237" type="curve" smooth="yes"/>
      <point x="42" y="151"/>
      <point x="131" y="108"/>
      <point x="214" y="108" type="curve" smooth="yes"/>
    </contour>
    <contour>
      <point x="175" y="187"/>
      <point x="154" y="209"/>
      <point x="154" y="237" type="curve" smooth="yes"/>
      <point x="154" y="264"/>
      <point x="175" y="288"/>
      <point x="215" y="288" type="curve" smooth="yes"/>
      <point x="254" y="288"/>
      <point x="275" y="266"/>
      <point x="275" y="238" type="curve" smooth="yes"/>
      <point x="275" y="211"/>
      <point x="252" y="187"/>
      <point x="215" y="187" type="curve" smooth="yes"/>
    </contour>
    <contour>
      <point x="346" y="338"/>
      <point x="372" y="352"/>
      <point x="430" y="351" type="curve"/>
      <point x="430" y="449" type="line"/>
      <point x="364" y="446"/>
      <point x="295" y="415"/>
      <point x="282" y="335" type="curve"/>
      <point x="329" y="295" type="line"/>
    </contour>
    <contour>
      <point x="216" y="363" type="move" name="top"/>
    </contour>
    <contour>
      <point x="205" y="-167" type="move" name="bottom"/>
    </contour>
  </outline>
</glyph>
<glyph name="k" format="1">
  <advance width="510"/>
  <unicode hex="006B"/>
  <outline>
    <contour>
      <point x="388" y="131"/>
      <point x="475" y="170"/>
      <point x="476" y="251" type="curve" smooth="yes"/>
      <point x="477" y="331"/>
      <point x="411" y="367"/>
      <point x="341" y="367" type="curve" smooth="yes"/>
      <point x="284" y="367"/>
      <point x="223" y="334"/>
      <point x="171" y="274" type="curve"/>
      <point x="169" y="200" type="line"/>
      <point x="226" y="255"/>
      <point x="277" y="273"/>
      <point x="302" y="273" type="curve" smooth="yes"/>
      <point x="327" y="273"/>
      <point x="348" y="265"/>
      <point x="348" y="246" type="curve" smooth="yes"/>
      <point x="348" y="223"/>
      <point x="315" y="213"/>
      <point x="284" y="212" type="curve" smooth="yes"/>
      <point x="257" y="212"/>
      <point x="222" y="214"/>
      <point x="169" y="241" type="curve"/>
      <point x="169" y="171" type="line"/>
      <point x="220" y="138"/>
      <point x="254" y="131"/>
      <point x="316" y="131" type="curve" smooth="yes"/>
    </contour>
    <contour>
      <point x="250" y="0" type="line"/>
      <point x="250" y="90" type="line"/>
      <point x="8" y="90" type="line"/>
      <point x="8" y="0" type="line"/>
    </contour>
    <contour>
      <point x="191" y="0" type="line"/>
      <point x="191" y="520" type="line"/>
      <point x="79" y="520" type="line"/>
      <point x="79" y="0" type="line"/>
    </contour>
    <contour>
      <point x="481" y="-11"/>
      <point x="511" y="12"/>
      <point x="538" y="44" type="curve"/>
      <point x="486" y="118" type="line"/>
      <point x="471" y="101"/>
      <point x="455" y="89"/>
      <point x="433" y="89" type="curve" smooth="yes"/>
      <point x="409" y="89"/>
      <point x="387" y="113"/>
      <point x="382" y="149" type="curve"/>
      <point x="283" y="149" type="line"/>
      <point x="294" y="53"/>
      <point x="349" y="-11"/>
      <point x="428" y="-11" type="curve" smooth="yes"/>
    </contour>
    <contour>
      <point x="182" y="430" type="line"/>
      <point x="182" y="520" type="line"/>
      <point x="8" y="520" type="line"/>
      <point x="8" y="430" type="line"/>
    </contour>
    <contour>
      <point x="294" y="363" type="move" name="top"/>
    </contour>
    <contour>
      <point x="294" y="0" type="move" name="bottom"/>
    </contour>
  </outline>
</glyph>
<glyph name="m" format="1">
  <advance width="813"/>
  <unicode hex="006D"/>
  <outline>
    <contour>
      <point x="203" y="267" type="line"/>
      <point x="203" y="357" type="line"/>
      <point x="25" y="357" type="line"/>
      <point x="25" y="267" type="line"/>
    </contour>
    <contour>
      <point x="211" y="0" type="line"/>
      <point x="211" y="357" type="line"/>
      <point x="96" y="357" type="line"/>
      <point x="96" y="0" type="line"/>
    </contour>
    <contour>
      <point x="268" y="0" type="line"/>
      <point x="268" y="90" type="line"/>
      <point x="25" y="90" type="line"/>
      <point x="25" y="0" type="line"/>
    </contour>
    <contour>
      <point x="484" y="0" type="line"/>
      <point x="484" y="194" type="line" smooth="yes"/>
      <point x="484" y="306"/>
      <point x="435" y="366"/>
      <point x="355" y="366" type="curve" smooth="yes"/>
      <point x="282" y="366"/>
      <point x="216" y="315"/>
      <point x="171" y="227" type="curve"/>
      <point x="171" y="137" type="line"/>
      <point x="216" y="217"/>
      <point x="265" y="258"/>
      <point x="312" y="258" type="curve" smooth="yes"/>
      <point x="350" y="258"/>
      <point x="368" y="228"/>
      <point x="368" y="194" type="curve" smooth="yes"/>
      <point x="368" y="0" type="line"/>
    </contour>
    <contour>
      <point x="541" y="0" type="line"/>
      <point x="541" y="90" type="line"/>
      <point x="312" y="90" type="line"/>
      <point x="312" y="0" type="line"/>
    </contour>
    <contour>
      <point x="756" y="0" type="line"/>
      <point x="756" y="194" type="line" smooth="yes"/>
      <point x="756" y="306"/>
      <point x="707" y="366"/>
      <point x="627" y="366" type="curve" smooth="yes"/>
      <point x="554" y="366"/>
      <point x="488" y="315"/>
      <point x="443" y="227" type="curve"/>
      <point x="443" y="137" type="line"/>
      <point x="488" y="217"/>
      <point x="537" y="258"/>
      <point x="584" y="258" type="curve" smooth="yes"/>
      <point x="622" y="258"/>
      <point x="640" y="228"/>
      <point x="640" y="194" type="curve" smooth="yes"/>
      <point x="640" y="0" type="line"/>
    </contour>
    <contour>
      <point x="817" y="0" type="line"/>
      <point x="817" y="90" type="line"/>
      <point x="584" y="90" type="line"/>
      <point x="584" y="0" type="line"/>
    </contour>
    <contour>
      <point x="486" y="363" type="move" name="top"/>
    </contour>
    <contour>
      <point x="486" y="0" type="move" name="bottom"/>
    </contour>
  </outline>
</glyph>
<glyph name="o" format="1">
  <advance width="453"/>
  <unicode hex="006F"/>
  <outline>
    <contour>
      <point x="337" y="-11"/>
      <point x="433" y="63"/>
      <point x="433" y="178" type="curve"/>
      <point x="433" y="293"/>
      <point x="329" y="367"/>
      <point x="227" y="367" type="curve"/>
      <point x="121" y="367"/>
      <point x="21" y="293"/>
      <point x="21" y="178" type="curve"/>
      <point x="21" y="63"/>
      <point x="121" y="-11"/>
      <point x="227" y="-11" type="curve"/>
    </contour>
    <contour>
      <point x="180" y="79"/>
      <point x="141" y="119"/>
      <point x="141" y="178" type="curve"/>
      <point x="141" y="237"/>
      <point x="180" y="277"/>
      <point x="227" y="277" type="curve"/>
      <point x="273" y="277"/>
      <point x="312" y="237"/>
      <point x="312" y="178" type="curve"/>
      <point x="312" y="119"/>
      <point x="273" y="79"/>
      <point x="227" y="79" type="curve"/>
    </contour>
    <contour>
      <point x="226" y="-8" type="move" name="bottom"/>
    </contour>
    <contour>
      <point x="218" y="-10" type="move" name="ogonek"/>
    </contour>
    <contour>
      <point x="226" y="363" type="move" name="top"/>
    </contour>
    <contour>
      <point x="639" y="357" type="move" name="topright"/>
    </contour>
    <contour>
      <point x="226" y="179" type="move" name="center"/>
    </contour>
  </outline>
</glyph>
<glyph name="r" format="1">
  <advance width="443"/>
  <unicode hex="0072"/>
  <outline>
    <contour>
      <point x="220" y="210"/>
      <point x="278" y="252"/>
      <point x="305" y="251" type="curve"/>
      <point x="305" y="181" type="line"/>
      <point x="414" y="181" type="line"/>
      <point x="414" y="366" type="line"/>
      <point x="361" y="366" type="line" smooth="yes"/>
      <point x="299" y="366"/>
      <point x="221" y="304"/>
      <point x="168" y="223" type="curve"/>
      <point x="168" y="137" type="line"/>
    </contour>
    <contour>
      <point x="283" y="0" type="line"/>
      <point x="283" y="90" type="line"/>
      <point x="25" y="90" type="line"/>
      <point x="25" y="0" type="line"/>
    </contour>
    <contour>
      <point x="211" y="0" type="line"/>
      <point x="211" y="357" type="line"/>
      <point x="96" y="357" type="line"/>
      <point x="96" y="0" type="line"/>
    </contour>
    <contour>
      <point x="203" y="267" type="line"/>
      <point x="203" y="357" type="line"/>
      <point x="25" y="357" type="line"/>
      <point x="25" y="267" type="line"/>
    </contour>
    <contour>
      <point x="271" y="357" type="move" name="top"/>
    </contour>
    <contour>
      <point x="271" y="0" type="move" name="bottom"/>
    </contour>
  </outline>
</glyph>
<glyph name="t" format="1">
  <advance width="316"/>
  <unicode hex="0074"/>
  <outline>
    <contour>
      <point x="261" y="-10"/>
      <point x="299" y="7"/>
      <point x="332" y="29" type="curve"/>
      <point x="293" y="114" type="line"/>
      <point x="269" y="99"/>
      <point x="250" y="91"/>
      <point x="227" y="91" type="curve" smooth="yes"/>
      <point x="189" y="91"/>
      <point x="174" y="116"/>
      <point x="174" y="151" type="curve"/>
      <point x="174" y="456" type="line"/>
      <point x="61" y="456" type="line"/>
      <point x="61" y="151" type="line"/>
      <point x="61" y="54"/>
      <point x="113" y="-10"/>
      <point x="206" y="-10" type="curve" smooth="yes"/>
    </contour>
    <contour>
      <point x="276" y="267" type="line"/>
      <point x="276" y="357" type="line"/>
      <point x="-10" y="357" type="line"/>
      <point x="-10" y="267" type="line"/>
    </contour>
    <contour>
      <point x="194" y="-10" type="move" name="bottom"/>
    </contour>
    <contour>
      <point x="154" y="456" type="move" name="top"/>
    </contour>
    <contour>
      <point x="247" y="419" type="move" name="topright"/>
    </contour>
    <contour>
      <point x="154" y="179" type="move" name="center"/>
    </contour>
  </outline>
</glyph>
<glyph name="v" format="1">
  <advance width="506"/>
  <unicode hex="0076"/>
  <outline>
    <contour>
      <point x="6" y="357" type="line"/>
      <point x="6" y="267" type="line"/>
      <point x="233" y="267" type="line"/>
      <point x="233" y="357" type="line"/>
    </contour>
    <contour>
      <point x="310" y="357" type="line"/>
      <point x="310" y="267" type="line"/>
      <point x="500" y="267" type="line"/>
      <point x="500" y="357" type="line"/>
    </contour>
    <contour>
      <point x="286" y="-20" type="line"/>
      <point x="492" y="343" type="line"/>
      <point x="384" y="343" type="line"/>
      <point x="267" y="112" type="line"/>
      <point x="151" y="343" type="line"/>
      <point x="16" y="343" type="line"/>
      <point x="222" y="-20" type="line"/>
    </contour>
    <contour>
      <point x="254" y="347" type="move" name="top"/>
    </contour>
    <contour>
      <point x="254" y="0" type="move" name="bottom"/>
    </contour>
  </outline>
</glyph>
<glyph name="y" format="1">
  <advance width="509"/>
  <unicode hex="0079"/>
  <outline>
    <contour>
      <point x="207" y="-189"/>
      <point x="265" y="-131"/>
      <point x="316" y="-20" type="curve" smooth="yes"/>
      <point x="485" y="344" type="line"/>
      <point x="375" y="344" type="line"/>
      <point x="223" y="3" type="line" smooth="yes"/>
      <point x="196" y="-59"/>
      <point x="170" y="-88"/>
      <point x="127" y="-88" type="curve" smooth="yes"/>
      <point x="100" y="-88"/>
      <point x="76" y="-76"/>
      <point x="58" y="-65" type="curve"/>
      <point x="14" y="-152" type="line"/>
      <point x="50" y="-174"/>
      <point x="81" y="-189"/>
      <point x="127" y="-189" type="curve" smooth="yes"/>
    </contour>
    <contour>
      <point x="306" y="29" type="line"/>
      <point x="158" y="343" type="line"/>
      <point x="24" y="343" type="line"/>
      <point x="241" y="-54" type="line"/>
    </contour>
    <contour>
      <point x="242" y="267" type="line"/>
      <point x="242" y="357" type="line"/>
      <point x="11" y="357" type="line"/>
      <point x="11" y="267" type="line"/>
    </contour>
    <contour>
      <point x="503" y="267" type="line"/>
      <point x="503" y="357" type="line"/>
      <point x="280" y="357" type="line"/>
      <point x="280" y="267" type="line"/>
    </contour>
    <contour>
      <point x="261" y="357" type="move" name="top"/>
    </contour>
    <contour>
      <point x="261" y="0" type="move" name="bottom"/>
    </contour>
  </outline>
</glyph>
<glyph name="z" format="1">
  <advance width="469"/>
  <unicode hex="007A"/>
  <outline>
    <contour>
      <point x="336" y="282"/>
      <point x="306" y="263"/>
      <point x="223" y="226" type="curve" smooth="yes"/>
      <point x="152" y="194"/>
      <point x="62" y="148"/>
      <point x="17" y="28" type="curve"/>
      <point x="111" y="-11" type="line"/>
      <point x="145" y="77"/>
      <point x="203" y="106"/>
      <point x="283" y="144" type="curve" smooth="yes"/>
      <point x="367" y="183"/>
      <point x="423" y="225"/>
      <point x="453" y="331" type="curve"/>
      <point x="357" y="368" type="line"/>
    </contour>
    <contour>
      <point x="368" y="-11"/>
      <point x="445" y="34"/>
      <point x="457" y="122" type="curve"/>
      <point x="359" y="150" type="line"/>
      <point x="350" y="117"/>
      <point x="323" y="85"/>
      <point x="288" y="85" type="curve" smooth="yes"/>
      <point x="246" y="85"/>
      <point x="217" y="101"/>
      <point x="134" y="154" type="curve"/>
      <point x="109" y="102" type="line"/>
      <point x="191" y="29"/>
      <point x="228" y="-11"/>
      <point x="307" y="-11" type="curve" smooth="yes"/>
    </contour>
    <contour>
      <point x="134" y="193" type="line"/>
      <point x="134" y="270" type="line"/>
      <point x="236" y="270"/>
      <point x="280" y="226"/>
      <point x="306" y="204" type="curve"/>
      <point x="342" y="259" type="line"/>
      <point x="275" y="325"/>
      <point x="235" y="367"/>
      <point x="104" y="367" type="curve" smooth="yes"/>
      <point x="36" y="367" type="line"/>
      <point x="36" y="193" type="line"/>
    </contour>
    <contour>
      <point x="245" y="367" type="move" name="top"/>
    </contour>
    <contour>
      <point x="196" y="-10" type="move" name="bottom"/>
    </contour>
  </outline>
</glyph>
<glyph name="yen" format="1">
  <advance width="638"/>
  <unicode hex="00A5"/>
  <outline>
    <contour>
      <point x="271" y="371" type="line"/>
      <point x="271" y="470" type="line"/>
      <point x="34" y="470" type="line"/>
      <point x="34" y="371" type="line"/>
    </contour>
    <contour>
      <point x="603" y="371" type="line"/>
      <point x="603" y="470" type="line"/>
      <point x="366" y="470" type="line"/>
      <point x="366" y="371" type="line"/>
    </contour>
    <contour>
      <point x="347" y="156" type="line"/>
      <point x="599" y="459" type="line"/>
      <point x="477" y="455" type="line"/>
      <point x="297" y="218" type="line"/>
      <point x="359" y="219" type="line"/>
      <point x="163" y="455" type="line"/>
      <point x="21" y="459" type="line"/>
      <point x="290" y="156" type="line"/>
    </contour>
    <contour>
      <point x="202" y="233" type="line"/>
      <point x="202" y="291" type="line"/>
      <point x="46" y="291" type="line"/>
      <point x="46" y="233" type="line"/>
    </contour>
    <contour>
      <point x="591" y="233" type="line"/>
      <point x="591" y="291" type="line"/>
      <point x="423" y="291" type="line"/>
      <point x="423" y="233" type="line"/>
    </contour>
    <contour>
      <point x="591" y="162" type="line"/>
      <point x="591" y="221" type="line"/>
      <point x="46" y="221" type="line"/>
      <point x="46" y="162" type="line"/>
    </contour>
    <contour>
      <point x="378" y="0" type="line"/>
      <point x="378" y="232" type="line"/>
      <point x="261" y="232" type="line"/>
      <point x="261" y="0" type="line"/>
    </contour>
    <contour>
      <point x="469" y="0" type="line"/>
      <point x="469" y="96" type="line"/>
      <point x="170" y="96" type="line"/>
      <point x="170" y="0" type="line"/>
    </contour>
  </outline>
</glyph>
<glyph name="registered" format="1">
  <advance width="774"/>
  <unicode hex="00AE"/>
  <outline>
    <contour>
      <point x="596" y="-165"/>
      <point x="746" y="-19"/>
      <point x="746" y="177" type="curve"/>
      <point x="746" y="373"/>
      <point x="596" y="519"/>
      <point x="387" y="519" type="curve"/>
      <point x="179" y="519"/>
      <point x="28" y="373"/>
      <point x="28" y="177" type="curve"/>
      <point x="28" y="-19"/>
      <point x="179" y="-165"/>
      <point x="387" y="-165" type="curve"/>
    </contour>
    <contour>
      <point x="394" y="12" type="line"/>
      <point x="394" y="72" type="line"/>
      <point x="213" y="72" type="line"/>
      <point x="213" y="12" type="line"/>
    </contour>
    <contour>
      <point x="342" y="46" type="line"/>
      <point x="342" y="299" type="line"/>
      <point x="263" y="299" type="line"/>
      <point x="263" y="46" type="line"/>
    </contour>
    <contour>
      <point x="561" y="6"/>
      <point x="597" y="45"/>
      <point x="597" y="95" type="curve" smooth="yes"/>
      <point x="597" y="112" type="line"/>
      <point x="523" y="112" type="line"/>
      <point x="523" y="93" type="line" smooth="yes"/>
      <point x="523" y="88"/>
      <point x="518" y="77"/>
      <point x="508" y="77" type="curve" smooth="yes"/>
      <point x="495" y="77"/>
      <point x="492" y="91"/>
      <point x="481" y="108" type="curve" smooth="yes"/>
      <point x="473" y="119"/>
      <point x="459" y="154"/>
      <point x="418" y="154" type="curve" smooth="yes"/>
      <point x="355" y="154" type="line"/>
      <point x="355" y="143" type="line"/>
      <point x="367" y="143" type="line" smooth="yes"/>
      <point x="386" y="143"/>
      <point x="389" y="120"/>
      <point x="405" y="89" type="curve" smooth="yes"/>
      <point x="426" y="51"/>
      <point x="448" y="6"/>
      <point x="508" y="6" type="curve" smooth="yes"/>
    </contour>
    <contour>
      <point x="214" y="-108"/>
      <point x="94" y="15"/>
      <point x="95" y="177" type="curve"/>
      <point x="94" y="339"/>
      <point x="214" y="462"/>
      <point x="387" y="462" type="curve"/>
      <point x="560" y="462"/>
      <point x="679" y="339"/>
      <point x="678" y="177" type="curve"/>
      <point x="679" y="15"/>
      <point x="560" y="-108"/>
      <point x="387" y="-108" type="curve"/>
    </contour>
    <contour>
      <point x="419" y="142" type="line" smooth="yes"/>
      <point x="501" y="142"/>
      <point x="541" y="192"/>
      <point x="541" y="239" type="curve" smooth="yes"/>
      <point x="541" y="294"/>
      <point x="500" y="332"/>
      <point x="419" y="332" type="curve" smooth="yes"/>
      <point x="213" y="332" type="line"/>
      <point x="213" y="269" type="line"/>
      <point x="419" y="269" type="line" smooth="yes"/>
      <point x="438" y="269"/>
      <point x="459" y="261"/>
      <point x="459" y="239" type="curve" smooth="yes"/>
      <point x="459" y="213"/>
      <point x="436" y="204"/>
      <point x="419" y="204" type="curve" smooth="yes"/>
      <point x="315" y="204" type="line"/>
      <point x="315" y="142" type="line"/>
    </contour>
  </outline>
</glyph>
<glyph name="AE" format="1">
  <advance width="919"/>
  <unicode hex="00C6"/>
  <outline>
    <contour>
      <point x="115" y="13" type="line"/>
      <point x="414" y="463" type="line"/>
      <point x="358" y="463" type="line"/>
      <point x="472" y="13" type="line"/>
      <point x="595" y="13" type="line"/>
      <point x="475" y="461" type="line" smooth="yes"/>
      <point x="294" y="461" type="line"/>
      <point x="-20" y="13" type="line"/>
    </contour>
    <contour>
      <point x="223" y="0" type="line"/>
      <point x="223" y="96" type="line"/>
      <point x="-19" y="96" type="line"/>
      <point x="-19" y="0" type="line"/>
    </contour>
    <contour>
      <point x="507" y="172" type="line"/>
      <point x="490" y="259" type="line"/>
      <point x="187" y="259" type="line"/>
      <point x="169" y="172" type="line"/>
    </contour>
    <contour>
      <point x="865" y="0" type="line"/>
      <point x="865" y="193" type="line"/>
      <point x="757" y="193" type="line"/>
      <point x="757" y="96" type="line"/>
      <point x="361" y="96" type="line"/>
      <point x="361" y="0" type="line"/>
    </contour>
    <contour>
      <point x="696" y="151" type="line"/>
      <point x="696" y="357" type="line"/>
      <point x="600" y="357" type="line"/>
      <point x="600" y="302" type="line"/>
      <point x="449" y="302" type="line"/>
      <point x="449" y="206" type="line"/>
      <point x="600" y="206" type="line"/>
      <point x="600" y="151" type="line"/>
    </contour>
    <contour>
      <point x="865" y="331" type="line"/>
      <point x="865" y="520" type="line"/>
      <point x="220" y="520" type="line"/>
      <point x="220" y="424" type="line"/>
      <point x="757" y="424" type="line"/>
      <point x="757" y="331" type="line"/>
    </contour>
    <contour>
      <point x="865" y="0" type="move" name="ogonek"/>
    </contour>
    <contour>
      <point x="475" y="0" type="move" name="bottom"/>
    </contour>
    <contour>
      <point x="476" y="520" type="move" name="top"/>
    </contour>
  </outline>
</glyph>
<glyph name="germandbls" format="1">
  <advance width="583"/>
  <unicode hex="00DF"/>
  <outline>
    <contour>
      <point x="534" y="-11"/>
      <point x="586" y="35"/>
      <point x="586" y="104" type="curve" smooth="yes"/>
      <point x="586" y="165"/>
      <point x="539" y="199"/>
      <point x="457" y="222" type="curve" smooth="yes"/>
      <point x="385" y="243"/>
      <point x="372" y="243"/>
      <point x="372" y="257" type="curve" smooth="yes"/>
      <point x="372" y="269"/>
      <point x="380" y="276"/>
      <point x="426" y="301" type="curve" smooth="yes"/>
      <point x="480" y="330"/>
      <point x="524" y="358"/>
      <point x="524" y="416" type="curve" smooth="yes"/>
      <point x="524" y="495"/>
      <point x="430" y="555"/>
      <point x="303" y="555" type="curve" smooth="yes"/>
      <point x="171" y="555"/>
      <point x="96" y="497"/>
      <point x="96" y="380" type="curve" smooth="yes"/>
      <point x="96" y="0" type="line"/>
      <point x="209" y="0" type="line"/>
      <point x="209" y="382" type="line" smooth="yes"/>
      <point x="209" y="430"/>
      <point x="241" y="459"/>
      <point x="304" y="459" type="curve" smooth="yes"/>
      <point x="363" y="459"/>
      <point x="404" y="441"/>
      <point x="404" y="411" type="curve" smooth="yes"/>
      <point x="404" y="389"/>
      <point x="381" y="379"/>
      <point x="338" y="354" type="curve" smooth="yes"/>
      <point x="283" y="325"/>
      <point x="252" y="297"/>
      <point x="252" y="241" type="curve" smooth="yes"/>
      <point x="252" y="182"/>
      <point x="295" y="150"/>
      <point x="386" y="121" type="curve" smooth="yes"/>
      <point x="452" y="101"/>
      <point x="466" y="99"/>
      <point x="466" y="85" type="curve" smooth="yes"/>
      <point x="466" y="71"/>
      <point x="454" y="62"/>
      <point x="427" y="62" type="curve" smooth="yes"/>
      <point x="393" y="62"/>
      <point x="331" y="85"/>
      <point x="304" y="121" type="curve"/>
      <point x="254" y="118" type="line"/>
      <point x="254" y="-1" type="line"/>
      <point x="340" y="-1" type="line"/>
      <point x="340" y="82" type="line"/>
      <point x="299" y="79" type="line"/>
      <point x="336" y="14"/>
      <point x="384" y="-11"/>
      <point x="444" y="-11" type="curve" smooth="yes"/>
    </contour>
    <contour>
      <point x="204" y="0" type="line"/>
      <point x="204" y="90" type="line"/>
      <point x="25" y="90" type="line"/>
      <point x="25" y="0" type="line"/>
    </contour>
    <contour>
      <point x="204" y="267" type="line"/>
      <point x="204" y="357" type="line"/>
      <point x="25" y="357" type="line"/>
      <point x="25" y="267" type="line"/>
    </contour>
  </outline>
</glyph>
<glyph name="uni0237" format="1">
  <advance width="245"/>
  <unicode hex="0237"/>
  <outline>
    <contour>
      <point x="136" y="-190"/>
      <point x="209" y="-128"/>
      <point x="209" y="-7" type="curve" smooth="yes"/>
      <point x="209" y="341" type="line"/>
      <point x="96" y="341" type="line"/>
      <point x="96" y="-9" type="line" smooth="yes"/>
      <point x="96" y="-61"/>
      <point x="72" y="-89"/>
      <point x="35" y="-89" type="curve" smooth="yes"/>
      <point x="11" y="-89"/>
      <point x="-4" y="-84"/>
      <point x="-32" y="-75" type="curve"/>
      <point x="-60" y="-170" type="line"/>
      <point x="-33" y="-178"/>
      <point x="-10" y="-190"/>
      <point x="40" y="-190" type="curve" smooth="yes"/>
    </contour>
    <contour>
      <point x="209" y="267" type="line"/>
      <point x="209" y="357" type="line"/>
      <point x="25" y="357" type="line"/>
      <point x="25" y="267" type="line"/>
    </contour>
    <contour>
      <point x="120" y="436" type="move" name="top"/>
    </contour>
    <contour>
      <point x="134" y="0" type="move" name="bottom"/>
    </contour>
  </outline>
</glyph>
<glyph name="uni02B9" format="1">
  <advance width="255"/>
  <unicode hex="02B9"/>
  <outline>
    <contour>
      <point x="66" y="360" type="line"/>
      <point x="137" y="348" type="line"/>
      <point x="204" y="538" type="line"/>
      <point x="89" y="563" type="line"/>
    </contour>
  </outline>
</glyph>
<glyph name="uni0304" format="1">
  <advance width="408"/>
  <unicode hex="0304"/>
  <outline>
    <contour>
      <point x="43" y="623" type="line"/>
      <point x="43" y="539" type="line"/>
      <point x="365" y="537" type="line"/>
      <point x="365" y="621" type="line"/>
    </contour>
    <contour>
      <point x="209" y="441" type="move" name="_top"/>
    </contour>
  </outline>
</glyph>
<glyph name="uni0306" format="1">
  <advance width="359"/>
  <unicode hex="0306"/>
  <outline>
    <contour>
      <point x="260" y="479"/>
      <point x="317" y="543"/>
      <point x="320" y="614" type="curve"/>
      <point x="252" y="628" type="line"/>
      <point x="244" y="593"/>
      <point x="212" y="574"/>
      <point x="179" y="574" type="curve"/>
      <point x="146" y="574"/>
      <point x="114" y="593"/>
      <point x="106" y="628" type="curve"/>
      <point x="38" y="614" type="line"/>
      <point x="41" y="543"/>
      <point x="100" y="479"/>
      <point x="179" y="479" type="curve"/>
    </contour>
    <contour>
      <point x="179" y="428" type="move" name="_top"/>
    </contour>
  </outline>
</glyph>
<glyph name="uni030A" format="1">
  <advance width="304"/>
  <unicode hex="030A"/>
  <outline>
    <contour>
      <point x="209" y="473"/>
      <point x="262" y="514"/>
      <point x="262" y="578" type="curve"/>
      <point x="262" y="637"/>
      <point x="209" y="684"/>
      <point x="152" y="684" type="curve"/>
      <point x="94" y="684"/>
      <point x="43" y="642"/>
      <point x="43" y="579" type="curve"/>
      <point x="43" y="519"/>
      <point x="94" y="473"/>
      <point x="152" y="473" type="curve"/>
    </contour>
    <contour>
      <point x="127" y="529"/>
      <point x="104" y="551"/>
      <point x="104" y="579" type="curve"/>
      <point x="104" y="607"/>
      <point x="127" y="628"/>
      <point x="152" y="628" type="curve"/>
      <point x="177" y="628"/>
      <point x="201" y="605"/>
      <point x="201" y="578" type="curve"/>
      <point x="201" y="549"/>
      <point x="177" y="529"/>
      <point x="152" y="529" type="curve"/>
    </contour>
    <contour>
      <point x="152" y="391" type="move" name="_top"/>
    </contour>
  </outline>
</glyph>
<glyph name="uni0327" format="1">
  <advance width="239"/>
  <unicode hex="0327"/>
  <outline>
    <contour>
      <point x="195" y="-199"/>
      <point x="227" y="-165"/>
      <point x="227" y="-123" type="curve" smooth="yes"/>
      <point x="227" y="-86"/>
      <point x="204" y="-63"/>
      <point x="168" y="-52" type="curve" smooth="yes"/>
      <point x="131" y="-41"/>
      <point x="117" y="-38"/>
      <point x="117" y="-25" type="curve" smooth="yes"/>
      <point x="117" y="-14"/>
      <point x="124" y="-6"/>
      <point x="129" y="0" type="curve"/>
      <point x="85" y="12" type="line"/>
      <point x="66" y="3"/>
      <point x="45" y="-24"/>
      <point x="45" y="-45" type="curve" smooth="yes"/>
      <point x="45" y="-84"/>
      <point x="80" y="-98"/>
      <point x="123" y="-110" type="curve" smooth="yes"/>
      <point x="151" y="-118"/>
      <point x="155" y="-120"/>
      <point x="155" y="-127" type="curve" smooth="yes"/>
      <point x="155" y="-133"/>
      <point x="151" y="-137"/>
      <point x="136" y="-137" type="curve" smooth="yes"/>
      <point x="102" y="-137"/>
      <point x="62" y="-119"/>
      <point x="39" y="-100" type="curve"/>
      <point x="13" y="-156" type="line"/>
      <point x="38" y="-176"/>
      <point x="83" y="-199"/>
      <point x="138" y="-199" type="curve" smooth="yes"/>
    </contour>
    <contour>
      <point x="129" y="0" type="move" name="_bottom"/>
    </contour>
  </outline>
</glyph>
<glyph name="uni0414" format="1">
  <advance width="545"/>
  <unicode hex="0414"/>
  <outline>
    <contour>
      <point x="547" y="13" type="line"/>
      <point x="395" y="461" type="line" smooth="yes"/>
      <point x="149" y="461" type="line"/>
      <point x="-1" y="13" type="line"/>
      <point x="119" y="13" type="line"/>
      <point x="260" y="463" type="line"/>
      <point x="282" y="463" type="line"/>
      <point x="423" y="13" type="line"/>
    </contour>
    <contour>
      <point x="122" y="-121" type="line"/>
      <point x="115" y="13" type="line"/>
      <point x="-1" y="13" type="line"/>
      <point x="20" y="-121" type="line"/>
    </contour>
    <contour>
      <point x="487" y="0" type="line"/>
      <point x="487" y="97" type="line"/>
      <point x="44" y="97" type="line"/>
      <point x="44" y="0" type="line"/>
    </contour>
    <contour>
      <point x="525" y="-121" type="line"/>
      <point x="547" y="13" type="line"/>
      <point x="427" y="13" type="line"/>
      <point x="423" y="-121" type="line"/>
    </contour>
    <contour>
      <point x="466" y="424" type="line"/>
      <point x="466" y="520" type="line"/>
      <point x="76" y="520" type="line"/>
      <point x="76" y="424" type="line"/>
    </contour>
  </outline>
</glyph>
<glyph name="uni1E9E" format="1">
  <advance width="708"/>
  <unicode hex="1E9E"/>
  <outline>
    <contour>
      <point x="371" y="0" type="line"/>
      <point x="371" y="118" type="line"/>
      <point x="316" y="123" type="line"/>
      <point x="389" y="27"/>
      <point x="433" y="-10"/>
      <point x="513" y="-10" type="curve" smooth="yes"/>
      <point x="601" y="-10"/>
      <point x="684" y="50"/>
      <point x="684" y="146" type="curve" smooth="yes"/>
      <point x="684" y="237"/>
      <point x="615" y="296"/>
      <point x="553" y="345" type="curve"/>
      <point x="669" y="492" type="line"/>
      <point x="590" y="557" type="line"/>
      <point x="391" y="297" type="line"/>
      <point x="538" y="228"/>
      <point x="556" y="178"/>
      <point x="556" y="146" type="curve" smooth="yes"/>
      <point x="556" y="111"/>
      <point x="528" y="84"/>
      <point x="489" y="84" type="curve" smooth="yes"/>
      <point x="446" y="84"/>
      <point x="391" y="117"/>
      <point x="337" y="197" type="curve"/>
      <point x="261" y="192" type="line"/>
      <point x="261" y="0" type="line"/>
    </contour>
    <contour>
      <point x="170" y="536"/>
      <point x="82" y="467"/>
      <point x="82" y="318" type="curve" smooth="yes"/>
      <point x="82" y="96" type="line"/>
      <point x="6" y="96" type="line"/>
      <point x="6" y="0" type="line"/>
      <point x="203" y="0" type="line"/>
      <point x="203" y="320" type="line" smooth="yes"/>
      <point x="203" y="402"/>
      <point x="247" y="434"/>
      <point x="310" y="434" type="curve" smooth="yes"/>
      <point x="391" y="434"/>
      <point x="449" y="395"/>
      <point x="509" y="341" type="curve"/>
      <point x="574" y="414" type="line"/>
      <point x="481" y="496"/>
      <point x="402" y="536"/>
      <point x="306" y="536" type="curve" smooth="yes"/>
    </contour>
  </outline>
</glyph>
<glyph name="quoteright" format="1">
  <advance width="248"/>
  <unicode hex="2019"/>
  <outline>
    <contour>
      <point x="157" y="371"/>
      <point x="204" y="427"/>
      <point x="204" y="482" type="curve" smooth="yes"/>
      <point x="204" y="537"/>
      <point x="171" y="568"/>
      <point x="121" y="568" type="curve" smooth="yes"/>
      <point x="78" y="568"/>
      <point x="44" y="547"/>
      <point x="44" y="512" type="curve" smooth="yes"/>
      <point x="44" y="481"/>
      <point x="72" y="458"/>
      <point x="109" y="458" type="curve" smooth="yes"/>
      <point x="122" y="458"/>
      <point x="135" y="460"/>
      <point x="143" y="463" type="curve"/>
      <point x="142" y="425"/>
      <point x="108" y="389"/>
      <point x="69" y="348" type="curve"/>
      <point x="98" y="319" type="line"/>
    </contour>
  </outline>
</glyph>
<glyph name="guilsinglleft" format="1">
  <advance width="440"/>
  <unicode hex="2039"/>
  <outline>
    <contour>
      <point x="298" y="261"/>
      <point x="384" y="345"/>
      <point x="418" y="465" type="curve"/>
      <point x="330" y="499" type="line"/>
      <point x="299" y="384"/>
      <point x="208" y="313"/>
      <point x="76" y="313" type="curve" smooth="yes"/>
      <point x="41" y="313" type="line"/>
      <point x="41" y="215" type="line"/>
      <point x="77" y="215" type="line" smooth="yes"/>
      <point x="210" y="215"/>
      <point x="300" y="144"/>
      <point x="331" y="29" type="curve"/>
      <point x="420" y="62" type="line"/>
      <point x="385" y="183"/>
      <point x="299" y="267"/>
      <point x="101" y="267" type="curve"/>
      <point x="101" y="261" type="line"/>
    </contour>
  </outline>
</glyph>
<glyph name="Euro" format="1">
  <advance width="568"/>
  <unicode hex="20AC"/>
  <outline>
    <contour>
      <point x="433" y="-10"/>
      <point x="491" y="25"/>
      <point x="545" y="70" type="curve"/>
      <point x="490" y="147" type="line"/>
      <point x="447" y="111"/>
      <point x="405" y="87"/>
      <point x="351" y="87" type="curve" smooth="yes"/>
      <point x="260" y="87"/>
      <point x="206" y="143"/>
      <point x="206" y="234" type="curve" smooth="yes"/>
      <point x="206" y="332"/>
      <point x="271" y="384"/>
      <point x="341" y="384" type="curve" smooth="yes"/>
      <point x="410" y="384"/>
      <point x="441" y="351"/>
      <point x="475" y="313" type="curve"/>
      <point x="537" y="317" type="line"/>
      <point x="537" y="470" type="line"/>
      <point x="439" y="470" type="line"/>
      <point x="439" y="373" type="line"/>
      <point x="494" y="357" type="line"/>
      <point x="461" y="427"/>
      <point x="401" y="480"/>
      <point x="308" y="480" type="curve" smooth="yes"/>
      <point x="189" y="480"/>
      <point x="78" y="386"/>
      <point x="78" y="234" type="curve" smooth="yes"/>
      <point x="78" y="90"/>
      <point x="192" y="-10"/>
      <point x="346" y="-10" type="curve" smooth="yes"/>
    </contour>
    <contour>
      <point x="25" y="219" type="line"/>
      <point x="25" y="154" type="line"/>
      <point x="438" y="154" type="line"/>
      <point x="438" y="219" type="line"/>
    </contour>
    <contour>
      <point x="27" y="299" type="line"/>
      <point x="27" y="234" type="line"/>
      <point x="440" y="234" type="line"/>
      <point x="440" y="299" type="line"/>
    </contour>
  </outline>
</glyph>
<glyph name="trademark" format="1">
  <advance width="630"/>
  <unicode hex="2122"/>
  <outline>
    <contour>
      <point x="449" y="297" type="line"/>
      <point x="464" y="324" type="line"/>
      <point x="368" y="520" type="line"/>
      <point x="317" y="520" type="line"/>
      <point x="428" y="297" type="line"/>
    </contour>
    <contour>
      <point x="187" y="300" type="line"/>
      <point x="187" y="341" type="line"/>
      <point x="71" y="341" type="line"/>
      <point x="71" y="300" type="line"/>
    </contour>
    <contour>
      <point x="154" y="325" type="line"/>
      <point x="154" y="500" type="line"/>
      <point x="103" y="500" type="line"/>
      <point x="103" y="325" type="line"/>
    </contour>
    <contour>
      <point x="51" y="435" type="line"/>
      <point x="51" y="484" type="line"/>
      <point x="206" y="484" type="line"/>
      <point x="206" y="435" type="line"/>
      <point x="252" y="435" type="line"/>
      <point x="252" y="520" type="line"/>
      <point x="6" y="520" type="line"/>
      <point x="6" y="435" type="line"/>
    </contour>
    <contour>
      <point x="387" y="299" type="line"/>
      <point x="387" y="340" type="line"/>
      <point x="277" y="340" type="line"/>
      <point x="277" y="299" type="line"/>
    </contour>
    <contour>
      <point x="358" y="321" type="line"/>
      <point x="358" y="520" type="line"/>
      <point x="311" y="520" type="line"/>
      <point x="311" y="321" type="line"/>
    </contour>
    <contour>
      <point x="356" y="479" type="line"/>
      <point x="356" y="520" type="line"/>
      <point x="277" y="520" type="line"/>
      <point x="277" y="479" type="line"/>
    </contour>
    <contour>
      <point x="613" y="299" type="line"/>
      <point x="613" y="340" type="line"/>
      <point x="499" y="340" type="line"/>
      <point x="499" y="299" type="line"/>
    </contour>
    <contour>
      <point x="459" y="297" type="line"/>
      <point x="569" y="520" type="line"/>
      <point x="522" y="520" type="line"/>
      <point x="428" y="324" type="line"/>
      <point x="439" y="297" type="line"/>
    </contour>
    <contour>
      <point x="579" y="321" type="line"/>
      <point x="579" y="520" type="line"/>
      <point x="528" y="520" type="line"/>
      <point x="528" y="321" type="line"/>
    </contour>
    <contour>
      <point x="613" y="479" type="line"/>
      <point x="613" y="520" type="line"/>
      <point x="530" y="520" type="line"/>
      <point x="530" y="479" type="line"/>
    </contour>
  </outline>
</glyph>
<glyph name="A.alt" format="1">
  <advance width="722"/>
  <outline>
    <contour>
      <point x="329" y="530" type="line"/>
      <point x="34" y="13" type="line"/>
      <point x="164" y="13" type="line"/>
      <point x="387" y="436" type="line"/>
      <point x="329" y="436" type="line"/>
      <point x="552" y="13" type="line"/>
      <point x="688" y="13" type="line"/>
      <point x="394" y="530" type="line"/>
    </contour>
    <contour>
      <point x="721" y="0" type="line"/>
      <point x="721" y="96" type="line"/>
      <point x="450" y="96" type="line"/>
      <point x="450" y="0" type="line"/>
    </contour>
    <contour>
      <point x="271" y="0" type="line"/>
      <point x="271" y="96" type="line"/>
      <point x="0" y="96" type="line"/>
      <point x="0" y="0" type="line"/>
    </contour>
    <contour>
      <point x="490" y="248" type="line"/>
      <point x="228" y="248" type="line"/>
      <point x="211" y="161" type="line"/>
      <point x="507" y="161" type="line"/>
    </contour>
    <contour>
      <point x="668" y="10" type="move" name="ogonek"/>
    </contour>
    <contour>
      <point x="361" y="0" type="move" name="bottom"/>
    </contour>
    <contour>
      <point x="361" y="487" type="move" name="top"/>
    </contour>
  </outline>
</glyph>
<glyph name="a.alt" format="1">
  <advance width="488"/>
  <outline>
    <contour>
      <point x="453" y="-6"/>
      <point x="496" y="27"/>
      <point x="496" y="90" type="curve" smooth="yes"/>
      <point x="496" y="143" type="line"/>
      <point x="439" y="143" type="line"/>
      <point x="439" y="89" type="line" smooth="yes"/>
      <point x="439" y="78"/>
      <point x="436" y="68"/>
      <point x="424" y="68" type="curve" smooth="yes"/>
      <point x="413" y="68"/>
      <point x="410" y="79"/>
      <point x="410" y="88" type="curve" smooth="yes"/>
      <point x="410" y="218" type="line" smooth="yes"/>
      <point x="410" y="305"/>
      <point x="353" y="366"/>
      <point x="235" y="366" type="curve" smooth="yes"/>
      <point x="169" y="366"/>
      <point x="121" y="351"/>
      <point x="53" y="322" type="curve"/>
      <point x="78" y="235" type="line"/>
      <point x="132" y="257"/>
      <point x="176" y="270"/>
      <point x="218" y="270" type="curve" smooth="yes"/>
      <point x="263" y="270"/>
      <point x="301" y="255"/>
      <point x="301" y="223" type="curve" smooth="yes"/>
      <point x="301" y="90" type="line" smooth="yes"/>
      <point x="301" y="32"/>
      <point x="338" y="-6"/>
      <point x="400" y="-6" type="curve" smooth="yes"/>
    </contour>
    <contour>
      <point x="219" y="-11"/>
      <point x="273" y="16"/>
      <point x="316" y="60" type="curve"/>
      <point x="318" y="134" type="line"/>
      <point x="273" y="99"/>
      <point x="230" y="83"/>
      <point x="197" y="83" type="curve" smooth="yes"/>
      <point x="173" y="83"/>
      <point x="161" y="93"/>
      <point x="161" y="106" type="curve" smooth="yes"/>
      <point x="161" y="128"/>
      <point x="185" y="137"/>
      <point x="210" y="137" type="curve" smooth="yes"/>
      <point x="243" y="138"/>
      <point x="275" y="135"/>
      <point x="318" y="125" type="curve"/>
      <point x="318" y="195" type="line"/>
      <point x="276" y="208"/>
      <point x="229" y="219"/>
      <point x="180" y="219" type="curve" smooth="yes"/>
      <point x="108" y="219"/>
      <point x="33" y="179"/>
      <point x="33" y="101" type="curve" smooth="yes"/>
      <point x="33" y="25"/>
      <point x="96" y="-11"/>
      <point x="162" y="-11" type="curve" smooth="yes"/>
    </contour>
    <contour>
      <point x="466" y="-1" type="move" name="ogonek"/>
    </contour>
    <contour>
      <point x="252" y="-10" type="move" name="bottom"/>
    </contour>
    <contour>
      <point x="221" y="365" type="move" name="top"/>
    </contour>
  </outline>
</glyph>
<glyph name="one.numr" format="1">
  <advance width="230"/>
  <outline>
    <contour>
      <point x="86" y="364"/>
      <point x="103" y="396"/>
      <point x="115" y="430" type="curve"/>
      <point x="92" y="479" type="line"/>
      <point x="82" y="447"/>
      <point x="54" y="428"/>
      <point x="22" y="421" type="curve"/>
      <point x="47" y="354" type="line"/>
    </contour>
    <contour>
      <point x="214" y="204" type="line"/>
      <point x="214" y="268" type="line"/>
      <point x="32" y="268" type="line"/>
      <point x="32" y="204" type="line"/>
    </contour>
    <contour>
      <point x="172" y="204" type="line"/>
      <point x="172" y="479" type="line"/>
      <point x="92" y="479" type="line"/>
      <point x="92" y="204" type="line"/>
    </contour>
  </outline>
</glyph>
